# Blender v2.62 (sub 0) OBJ File: ''
# www.blender.org
v 1.000000 -1.000000 -1.000000
v 1.000000 -1.000000 1.000000
v -1.000000 -1.000000 1.000000
v -1.000000 -1.000000 -1.000000
v 1.000000 1.000000 -0.999999
v 0.999999 1.000000 1.000001
v -1.000000 1.000000 1.000000
v -1.000000 1.000000 -1.000000
vt 1.000000 0.000000
vt 1.000000 1.000000
vt 0.000000 0.000000
vt 0.000000 1.000000
vt 0.000000 0.999655
vt 0.000345 0.000000
vt 1.000000 0.000345
vt 0.999655 1.000000
vt 0.000000 0.000001
vt 0.999999 0.000000
vn 0.577349 0.577349 -0.577349
vn 0.577349 -0.577349 -0.577349
vn -0.577349 0.577349 -0.577349
vn -0.577349 -0.577349 -0.577349
vn -0.577349 -0.577349 0.577349
vn -0.577349 0.577349 0.577349
vn 0.577349 -0.577349 0.577349
vn 0.577349 0.577349 0.577349
s 1
f 5/1/1 1/2/2 8/3/3
f 1/2/2 4/4/4 8/3/3
f 3/5/5 7/6/6 8/7/3
f 3/5/5 8/7/3 4/8/4
f 2/1/7 6/2/8 3/3/5
f 6/2/8 7/4/6 3/3/5
f 1/1/2 5/2/1 2/9/7
f 5/2/1 6/4/8 2/9/7
f 5/2/1 8/4/3 7/3/6
f 5/2/1 7/3/6 6/10/8
f 1/2/2 2/4/7 3/3/5
f 1/2/2 3/3/5 4/1/4
